<svg width="225" height="53" viewBox="0 0 225 53" fill="none" xmlns="http://www.w3.org/2000/svg">
<path d="M1 44.3093V50.7255C32.7203 52.9663 101.429 52.763 136.223 45.9132C65.844 53.565 17.2399 46.9237 1 44.3093Z" fill="#DFE65B" stroke="#DFE65B" stroke-width="0.5"/>
<path d="M224 49.1214V43.7686C200.627 41.8991 150 42.0687 124.362 47.7833C176.22 41.3996 212.034 46.9403 224 49.1214Z" fill="#DFE65B" stroke="#DFE65B" stroke-width="0.5"/>
<path d="M36.7857 37.2187C36.2399 36.8883 35.8415 36.5941 35.5905 36.3361C35.3458 36.075 35.2235 35.817 35.2235 35.5621C35.2235 35.0808 35.5089 34.7001 36.0799 34.42C36.6508 34.14 37.4163 34 38.3762 34C39.2483 34 39.9542 34.1274 40.4937 34.3823C41.0333 34.634 41.3031 34.9549 41.3031 35.345C41.3031 35.7981 40.7823 36.2433 39.7408 36.6807L38.235 37.2659L41.9995 39.4651C42.5705 39.0026 42.8559 38.4788 42.8559 37.8936H43.9006C43.9006 38.6738 43.499 39.333 42.6959 39.871L44.5688 40.9659H43.2136L42.0278 40.2769C41.5321 40.5223 40.958 40.7142 40.3055 40.8526C39.6593 40.9911 38.9754 41.0603 38.2539 41.0603C36.9488 41.0603 35.9136 40.8936 35.1482 40.56C34.3827 40.2234 34 39.775 34 39.215C34 38.8815 34.1945 38.5669 34.5835 38.2711C34.9788 37.9722 35.6689 37.6371 36.654 37.2659L36.7857 37.2187ZM38.2539 40.5836C38.8248 40.5836 39.3769 40.5239 39.9102 40.4043C40.4498 40.2816 40.9329 40.1085 41.3596 39.8852L37.5292 37.6576L37.3974 37.5868L36.9645 37.752C35.7348 38.2554 35.1199 38.7431 35.1199 39.215C35.1199 39.6272 35.4023 39.9591 35.9669 40.2108C36.5316 40.4594 37.2939 40.5836 38.2539 40.5836ZM36.3528 35.5433C36.3528 35.9271 36.7763 36.3802 37.6233 36.9025L38.8562 36.4305C39.2577 36.2858 39.5871 36.1269 39.8444 35.9539C40.1016 35.7808 40.2302 35.5779 40.2302 35.345C40.2302 35.0996 40.0608 34.8951 39.722 34.7315C39.3832 34.5648 38.9315 34.4814 38.3668 34.4814C37.7519 34.4814 37.2625 34.5805 36.8986 34.7787C36.5347 34.9769 36.3528 35.2318 36.3528 35.5433Z" fill="black"/>
<path d="M63.7017 39.2764C63.7017 38.8956 63.4351 38.5952 62.9018 38.3749C62.3685 38.1515 61.3929 37.9407 59.9749 37.7425C58.557 37.5412 57.5217 37.3225 56.8692 37.0865C55.9406 36.753 55.4764 36.3157 55.4764 35.7745C55.4764 35.2491 55.9061 34.8228 56.7657 34.4955C57.6315 34.1652 58.7358 34 60.0784 34C60.9882 34 61.8007 34.0881 62.5159 34.2643C63.2375 34.4405 63.7959 34.6859 64.1911 35.0005C64.5864 35.3152 64.784 35.666 64.784 36.053H63.617C63.617 35.5842 63.2971 35.2082 62.6571 34.925C62.0171 34.6387 61.1576 34.4955 60.0784 34.4955C59.0306 34.4955 58.1962 34.6135 57.575 34.8495C56.9539 35.0823 56.6433 35.3875 56.6433 35.7651C56.6433 36.1143 56.9225 36.3991 57.4809 36.6193C58.0393 36.8395 58.9334 37.0346 60.1631 37.2045C61.3929 37.3713 62.3246 37.5459 62.9583 37.7284C63.5919 37.9077 64.0688 38.1232 64.3888 38.3749C64.7087 38.6266 64.8687 38.924 64.8687 39.2669C64.8687 39.8081 64.4358 40.2423 63.57 40.5695C62.7104 40.8967 61.5748 41.0603 60.1631 41.0603C59.1969 41.0603 58.3091 40.9738 57.4998 40.8007C56.6967 40.6277 56.0849 40.3854 55.6646 40.0739C55.2505 39.7625 55.0434 39.4053 55.0434 39.0026H56.201C56.201 39.4872 56.5618 39.8694 57.2833 40.1494C58.0048 40.4295 58.9648 40.5695 60.1631 40.5695C61.2297 40.5695 62.0861 40.4515 62.7324 40.2155C63.3786 39.9795 63.7017 39.6665 63.7017 39.2764Z" fill="black"/>
<path d="M75.7387 41.0603C74.8728 41.0603 74.0886 40.9533 73.3859 40.7394C72.6894 40.5254 72.1467 40.2281 71.7577 39.8474C71.3687 39.4636 71.1742 39.0341 71.1742 38.559V38.3561C71.1742 37.8652 71.3625 37.4232 71.7389 37.0299C72.1216 36.6366 72.6518 36.3283 73.3294 36.1049C74.007 35.8783 74.7411 35.7651 75.5316 35.7651C76.7676 35.7651 77.7464 35.9775 78.4679 36.4022C79.1957 36.8238 79.5596 37.4012 79.5596 38.1342V38.4504H72.2942V38.559C72.2942 39.1379 72.6236 39.6209 73.2823 40.0079C73.9474 40.3917 74.7819 40.5836 75.7857 40.5836C76.388 40.5836 76.9182 40.5286 77.3762 40.4185C77.8405 40.3083 78.2609 40.1321 78.6373 39.8899L79.3431 40.1589C78.515 40.7598 77.3135 41.0603 75.7387 41.0603ZM75.5316 36.2465C74.6846 36.2465 73.9694 36.4022 73.3859 36.7137C72.8086 37.0252 72.4573 37.4436 72.3318 37.9691H78.4397V37.9077C78.4083 37.4169 78.1291 37.0173 77.6021 36.709C77.075 36.4006 76.3849 36.2465 75.5316 36.2465Z" fill="black"/>
<path d="M85.9875 38.3655C85.9875 37.5663 86.3388 36.9339 87.0415 36.4683C87.7505 35.9995 88.7104 35.7651 89.9213 35.7651C91.3079 35.7651 92.362 36.042 93.0835 36.5957L93.14 35.8595H94.194V40.8621C94.194 41.5197 93.827 42.0404 93.0929 42.4242C92.3588 42.8081 91.3644 43 90.1096 43C89.4006 43 88.723 42.9198 88.0767 42.7593C87.4368 42.602 86.9317 42.3912 86.5615 42.1269L87.1921 41.7871C87.9889 42.2779 88.9363 42.5233 90.0343 42.5233C90.9754 42.5233 91.7095 42.3833 92.2365 42.1033C92.7635 41.8264 93.0364 41.441 93.0553 40.947V40.3052C92.3337 40.8086 91.2828 41.0603 89.9025 41.0603C88.723 41.0603 87.7756 40.8243 87.0603 40.3524C86.3451 39.8804 85.9875 39.2433 85.9875 38.441V38.3655ZM87.1262 38.4646C87.1262 39.1159 87.3866 39.6303 87.9073 40.0079C88.4281 40.3823 89.1622 40.5695 90.1096 40.5695C91.4961 40.5695 92.478 40.258 93.0553 39.635V37.2611C92.7917 36.9339 92.4122 36.6854 91.9165 36.5155C91.4209 36.3424 90.8248 36.2559 90.1284 36.2559C89.181 36.2559 88.4438 36.4431 87.9167 36.8175C87.3897 37.1888 87.1262 37.7378 87.1262 38.4646Z" fill="black"/>
<path d="M108.367 40.3193C107.69 40.8133 106.607 41.0603 105.12 41.0603C104.035 41.0603 103.21 40.903 102.645 40.5884C102.081 40.2706 101.792 39.8018 101.779 39.182V35.8595H102.899V39.1112C102.899 40.0834 103.684 40.5695 105.252 40.5695C106.883 40.5695 107.916 40.2313 108.348 39.5548V35.8595H109.478V40.9659H108.386L108.367 40.3193Z" fill="black"/>
<path d="M121.806 36.3408C121.568 36.3188 121.314 36.3078 121.044 36.3078C120.341 36.3078 119.745 36.4069 119.256 36.6051C118.773 36.8002 118.428 37.085 118.221 37.4594V40.9659H117.101V35.8595H118.202L118.221 36.6712C118.817 36.0671 119.774 35.7651 121.091 35.7651C121.405 35.7651 121.653 35.7855 121.835 35.8264L121.806 36.3408Z" fill="black"/>
<path d="M127.66 38.3372C127.66 37.8464 127.848 37.4043 128.225 37.011C128.608 36.6177 129.144 36.3125 129.834 36.0954C130.531 35.8752 131.318 35.7651 132.196 35.7651C133.552 35.7651 134.65 36.0042 135.49 36.4824C136.331 36.9575 136.751 37.5884 136.751 38.3749V38.4929C136.751 38.9869 136.56 39.4321 136.177 39.8285C135.801 40.2218 135.268 40.5254 134.577 40.7394C133.887 40.9533 133.1 41.0603 132.215 41.0603C130.866 41.0603 129.768 40.8228 128.921 40.3477C128.081 39.8694 127.66 39.237 127.66 38.4504V38.3372ZM128.79 38.4929C128.79 39.1033 129.103 39.6051 129.731 39.9984C130.364 40.3886 131.193 40.5836 132.215 40.5836C133.232 40.5836 134.054 40.3886 134.681 39.9984C135.315 39.6051 135.632 39.0876 135.632 38.4457V38.3372C135.632 37.947 135.487 37.5899 135.199 37.2659C134.91 36.9418 134.505 36.6917 133.985 36.5155C133.464 36.3361 132.868 36.2465 132.196 36.2465C131.193 36.2465 130.374 36.4447 129.74 36.8411C129.106 37.2344 128.79 37.7504 128.79 38.3891V38.4929Z" fill="black"/>
<path d="M149.871 39.6681C149.871 39.388 149.645 39.1631 149.193 38.9932C148.748 38.8233 148.073 38.6911 147.17 38.5967C146.266 38.4992 145.563 38.3891 145.062 38.2664C144.566 38.1405 144.196 37.9879 143.951 37.8086C143.713 37.6293 143.593 37.4122 143.593 37.1573C143.593 36.7546 143.929 36.4227 144.6 36.1615C145.272 35.8972 146.131 35.7651 147.179 35.7651C148.315 35.7651 149.224 35.9067 149.908 36.1898C150.598 36.4698 150.944 36.8364 150.944 37.2895H149.814C149.814 36.9906 149.563 36.742 149.061 36.5438C148.566 36.3456 147.938 36.2465 147.179 36.2465C146.439 36.2465 145.843 36.3298 145.391 36.4966C144.945 36.6602 144.723 36.8741 144.723 37.1384C144.723 37.3933 144.908 37.5915 145.278 37.7331C145.654 37.8715 146.335 37.999 147.32 38.1154C148.312 38.2318 149.052 38.3561 149.541 38.4882C150.037 38.6203 150.404 38.7792 150.642 38.9649C150.881 39.1505 151 39.3755 151 39.6397C151 40.0708 150.652 40.4153 149.955 40.6733C149.265 40.9313 148.362 41.0603 147.245 41.0603C146.059 41.0603 145.096 40.9171 144.356 40.6308C143.622 40.3414 143.255 39.9764 143.255 39.5359H144.384C144.428 39.8663 144.704 40.1243 145.212 40.3099C145.727 40.4924 146.404 40.5836 147.245 40.5836C148.029 40.5836 148.663 40.4971 149.146 40.3241C149.629 40.151 149.871 39.9324 149.871 39.6681Z" fill="black"/>
<path d="M7.01386 30.1657H5.74469V22.6609H7.01386V30.1657Z" fill="black"/>
<path d="M17.126 24.5887L17.1673 25.5422C17.5869 25.1986 18.1097 24.9374 18.7357 24.7588C19.3616 24.5766 20.053 24.4856 20.8097 24.4856C22.0066 24.4856 22.8974 24.6539 23.4822 24.9907C24.0669 25.3275 24.3627 25.8326 24.3696 26.5061V30.1657H23.1417V26.5009C23.1348 26.0027 22.9215 25.6316 22.5019 25.3876C22.0892 25.1436 21.4253 25.0216 20.5104 25.0216C19.7469 25.0216 19.0693 25.1419 18.4777 25.3824C17.893 25.6195 17.4596 25.9408 17.1776 26.3463V30.1657H15.9497V24.5887H17.126Z" fill="black"/>
<path d="M33.8316 24.5887L33.8729 25.4958C34.2856 25.1591 34.8015 24.9065 35.4206 24.7381C36.0398 24.5698 36.7277 24.4856 37.4843 24.4856C39.2454 24.4856 40.3632 24.8464 40.8379 25.568C41.2368 25.2209 41.77 24.9546 42.4372 24.7691C43.1045 24.5801 43.8405 24.4856 44.6454 24.4856C47.0393 24.4856 48.2603 25.1385 48.3084 26.4442V30.1657H47.0702V26.4906C47.0633 25.9924 46.8466 25.623 46.4202 25.3824C46.0005 25.1419 45.3126 25.0216 44.3565 25.0216C43.4691 25.0285 42.7193 25.1728 42.107 25.4546C41.4948 25.7329 41.1543 26.0731 41.0855 26.4752V30.1657H39.8473V26.4442C39.8404 25.9666 39.6134 25.6109 39.1663 25.3773C38.726 25.1402 38.045 25.0216 37.1232 25.0216C36.3459 25.0216 35.6786 25.1333 35.1214 25.3567C34.5642 25.5766 34.1515 25.9047 33.8832 26.3412V30.1657H32.645V24.5887H33.8316Z" fill="black"/>
<path d="M55.9028 27.2947C55.9028 26.7587 56.1092 26.2759 56.5219 25.8463C56.9416 25.4168 57.5297 25.0835 58.2864 24.8464C59.05 24.6058 59.9133 24.4856 60.8763 24.4856C62.3622 24.4856 63.566 24.7467 64.4878 25.269C65.4096 25.7879 65.8705 26.4769 65.8705 27.336V27.4648C65.8705 28.0043 65.6607 28.4905 65.2411 28.9235C64.8283 29.353 64.2436 29.6846 63.4869 29.9183C62.7302 30.152 61.8669 30.2688 60.897 30.2688C59.418 30.2688 58.2142 30.0094 57.2855 29.4905C56.3637 28.9682 55.9028 28.2775 55.9028 27.4184V27.2947ZM57.1411 27.4648C57.1411 28.1314 57.485 28.6795 58.1729 29.1091C58.8677 29.5352 59.7757 29.7482 60.897 29.7482C62.0114 29.7482 62.9125 29.5352 63.6004 29.1091C64.2952 28.6795 64.6426 28.1143 64.6426 27.4133V27.2947C64.6426 26.8686 64.4844 26.4786 64.1679 26.1247C63.8515 25.7707 63.4078 25.4976 62.8369 25.3051C62.2659 25.1093 61.6124 25.0113 60.8763 25.0113C59.7757 25.0113 58.878 25.2278 58.1832 25.6608C57.4884 26.0903 57.1411 26.6539 57.1411 27.3514V27.4648Z" fill="black"/>
<path d="M82.5555 27.4339C82.5555 28.3033 82.1703 28.9939 81.3998 29.506C80.6294 30.0145 79.5941 30.2688 78.2939 30.2688C76.7393 30.2688 75.563 29.9802 74.765 29.4029L74.7134 30.1657H73.5578V22.2486H74.7857V25.3979C75.5699 24.7897 76.7324 24.4856 78.2733 24.4856C79.5941 24.4856 80.6362 24.7381 81.3998 25.2433C82.1703 25.745 82.5555 26.4442 82.5555 27.3411V27.4339ZM81.3173 27.3256C81.3173 26.5903 81.0318 26.0233 80.4608 25.6247C79.8899 25.2227 79.085 25.0216 78.0463 25.0216C77.2552 25.0216 76.5845 25.1196 76.0342 25.3154C75.4839 25.5079 75.0677 25.7914 74.7857 26.1659V28.6812C75.4048 29.3822 76.4985 29.7327 78.0669 29.7327C79.085 29.7327 79.8796 29.5317 80.4505 29.1297C81.0283 28.7276 81.3173 28.1263 81.3173 27.3256Z" fill="black"/>
<path d="M91.8112 30.1657H90.5729V24.5887H91.8112V30.1657ZM90.3563 22.9753C90.3563 22.8585 90.4319 22.7606 90.5833 22.6815C90.7346 22.5991 90.941 22.5578 91.2024 22.5578C91.4638 22.5578 91.6701 22.5991 91.8215 22.6815C91.9797 22.7606 92.0588 22.8585 92.0588 22.9753C92.0588 23.0922 91.9797 23.1901 91.8215 23.2691C91.6701 23.3482 91.4638 23.3877 91.2024 23.3877C90.941 23.3877 90.7346 23.3482 90.5833 23.2691C90.4319 23.1901 90.3563 23.0922 90.3563 22.9753Z" fill="black"/>
<path d="M101.696 30.1657H100.458V22.2486H101.696V30.1657Z" fill="black"/>
<path d="M111.581 30.1657H110.343V24.5887H111.581V30.1657ZM110.126 22.9753C110.126 22.8585 110.202 22.7606 110.353 22.6815C110.505 22.5991 110.711 22.5578 110.973 22.5578C111.234 22.5578 111.44 22.5991 111.592 22.6815C111.75 22.7606 111.829 22.8585 111.829 22.9753C111.829 23.0922 111.75 23.1901 111.592 23.2691C111.44 23.3482 111.234 23.3877 110.973 23.3877C110.711 23.3877 110.505 23.3482 110.353 23.2691C110.202 23.1901 110.126 23.0922 110.126 22.9753Z" fill="black"/>
<path d="M127.131 30.1657C127.008 29.9905 126.928 29.731 126.894 29.3874C126.461 29.6692 125.907 29.8874 125.233 30.042C124.565 30.1932 123.857 30.2688 123.107 30.2688C122.034 30.2688 121.164 30.1193 120.497 29.8204C119.836 29.5214 119.506 29.1434 119.506 28.6864C119.506 28.1435 119.957 27.7139 120.858 27.3978C121.766 27.0817 123.028 26.9236 124.645 26.9236H126.884V26.2896C126.884 25.891 126.636 25.5783 126.141 25.3515C125.652 25.1213 124.937 25.0062 123.995 25.0062C123.135 25.0062 122.423 25.1161 121.859 25.336C121.295 25.556 121.012 25.8206 121.012 26.1298L119.774 26.1247C119.774 25.6814 120.187 25.2982 121.012 24.9752C121.838 24.6488 122.853 24.4856 124.056 24.4856C125.302 24.4856 126.282 24.6419 126.997 24.9546C127.719 25.2639 128.091 25.6969 128.112 26.2535V28.8926C128.112 29.4321 128.225 29.8358 128.452 30.1039V30.1657H127.131ZM123.252 29.7224C124.077 29.7224 124.813 29.6228 125.46 29.4235C126.113 29.2242 126.588 28.9579 126.884 28.6246V27.3978H124.676C123.444 27.4047 122.481 27.5181 121.786 27.738C121.092 27.9545 120.744 28.2534 120.744 28.6349C120.744 28.9476 120.975 29.207 121.436 29.4132C121.903 29.6193 122.509 29.7224 123.252 29.7224Z" fill="black"/>
<path d="M141.711 25.1144C141.45 25.0904 141.171 25.0783 140.876 25.0783C140.105 25.0783 139.452 25.1866 138.915 25.4031C138.385 25.6161 138.007 25.9271 137.78 26.336V30.1657H136.552V24.5887H137.759L137.78 25.4752C138.434 24.8155 139.483 24.4856 140.927 24.4856C141.271 24.4856 141.543 24.5079 141.742 24.5526L141.711 25.1144Z" fill="black"/>
<path d="M150.193 30.1657H148.955V24.5887H150.193V30.1657ZM148.738 22.9753C148.738 22.8585 148.814 22.7606 148.965 22.6815C149.117 22.5991 149.323 22.5578 149.584 22.5578C149.846 22.5578 150.052 22.5991 150.203 22.6815C150.362 22.7606 150.441 22.8585 150.441 22.9753C150.441 23.0922 150.362 23.1901 150.203 23.2691C150.052 23.3482 149.846 23.3877 149.584 23.3877C149.323 23.3877 149.117 23.3482 148.965 23.2691C148.814 23.1901 148.738 23.0922 148.738 22.9753Z" fill="black"/>
<path d="M165.743 30.1657C165.619 29.9905 165.54 29.731 165.506 29.3874C165.072 29.6692 164.519 29.8874 163.844 30.042C163.177 30.1932 162.469 30.2688 161.719 30.2688C160.646 30.2688 159.776 30.1193 159.108 29.8204C158.448 29.5214 158.118 29.1434 158.118 28.6864C158.118 28.1435 158.568 27.7139 159.469 27.3978C160.377 27.0817 161.64 26.9236 163.256 26.9236H165.495V26.2896C165.495 25.891 165.248 25.5783 164.753 25.3515C164.264 25.1213 163.549 25.0062 162.606 25.0062C161.746 25.0062 161.034 25.1161 160.47 25.336C159.906 25.556 159.624 25.8206 159.624 26.1298L158.386 26.1247C158.386 25.6814 158.799 25.2982 159.624 24.9752C160.45 24.6488 161.464 24.4856 162.668 24.4856C163.913 24.4856 164.894 24.6419 165.609 24.9546C166.331 25.2639 166.703 25.6969 166.723 26.2535V28.8926C166.723 29.4321 166.837 29.8358 167.064 30.1039V30.1657H165.743ZM161.863 29.7224C162.689 29.7224 163.425 29.6228 164.071 29.4235C164.725 29.2242 165.2 28.9579 165.495 28.6246V27.3978H163.287C162.056 27.4047 161.093 27.5181 160.398 27.738C159.703 27.9545 159.356 28.2534 159.356 28.6349C159.356 28.9476 159.586 29.207 160.047 29.4132C160.515 29.6193 161.12 29.7224 161.863 29.7224Z" fill="black"/>
<path d="M212.138 49.1214H188.415L183.67 46.7153L185.252 49.1214H180.507L177.344 47.5174L178.135 49.1214H175.762L174.972 47.5174V45.1113L178.135 46.7153L174.972 41.1012V35.487L178.926 37.0911L174.972 33.0809V28.2688L197.113 43.5073L174.972 21.0506L178.926 17.0405L186.833 22.6546L180.507 15.4364L193.95 1L202.649 10.6243V2.60405H210.557V19.4465L220.046 29.8729H212.138V49.1214Z" fill="url(#paint0_linear_30_144)" stroke="url(#paint1_linear_30_144)" stroke-width="0.5"/>
<path d="M18.2209 17.0405V12.2283L7.32623 4.2081H12.4454L20.4195 9.64404L28.328 4.2081H33.5128L22.5853 12.2462V17.0405H18.2209Z" fill="black"/>
<path d="M38.0633 17.0405C36.8164 17.0405 35.7444 16.8028 34.8474 16.3276C33.9724 15.8404 33.5348 15.2582 33.5348 14.5809V10.6956H48.5642V9.66186C48.5642 9.32917 48.5205 9.145 48.433 9.10935C48.3673 9.06183 48.0282 9.03806 47.4157 9.03806H33.5348V6.70328H48.3345C49.5815 6.70328 50.6425 6.94686 51.5176 7.43402C52.4145 7.90929 52.863 8.48556 52.863 9.16282V17.0405H38.0633ZM38.9822 14.7057H48.5642V12.7987H37.8336V14.0819C37.8336 14.4146 37.8664 14.6047 37.9321 14.6522C38.0196 14.6879 38.3696 14.7057 38.9822 14.7057Z" fill="black"/>
<path d="M63.4452 17.0405V8.07309H55.1758V6.0413H75.4275V8.07309H67.1862V17.0405H63.4452Z" fill="black"/>
<path d="M77.503 17.0405V6.05657H93.8168C94.9044 6.05657 95.8326 6.27045 96.6014 6.69819C97.3702 7.11575 97.7547 7.6097 97.7547 8.18003V11.1437C97.7547 11.7242 97.3702 12.2232 96.6014 12.6408C95.8326 13.0584 94.9044 13.2671 93.8168 13.2671H92.7199L97.7265 16.4752V17.0405H93.6762L87.8538 13.2671L81.2158 13.2824V17.0405H77.503ZM82.2002 11.2354H93.0293C93.5356 11.2354 93.8168 11.2201 93.8731 11.1895C93.9481 11.159 93.9856 11.0011 93.9856 10.7159V8.60777C93.9856 8.32261 93.9481 8.16475 93.8731 8.1342C93.8168 8.09346 93.5356 8.07309 93.0293 8.07309H82.2002C81.6752 8.07309 81.3752 8.09346 81.3002 8.1342C81.2439 8.16475 81.2158 8.32261 81.2158 8.60777V10.7159C81.2158 11.0011 81.2439 11.159 81.3002 11.1895C81.3752 11.2201 81.6752 11.2354 82.2002 11.2354Z" fill="black"/>
<path d="M105.401 17.0405C104.154 17.0405 103.082 16.8028 102.186 16.3276C101.31 15.8404 100.873 15.2582 100.873 14.5809V10.6956H115.902V9.66186C115.902 9.32917 115.859 9.145 115.771 9.10935C115.705 9.06183 115.366 9.03806 114.754 9.03806H100.873V6.70328H115.673C116.92 6.70328 117.981 6.94686 118.856 7.43402C119.753 7.90929 120.201 8.48556 120.201 9.16282V17.0405H105.401ZM106.32 14.7057H115.902V12.7987H105.172V14.0819C105.172 14.4146 105.205 14.6047 105.27 14.6522C105.358 14.6879 105.708 14.7057 106.32 14.7057Z" fill="black"/>
<path d="M123.371 17.0405V6.70328H138.17C139.417 6.70328 140.479 6.94686 141.354 7.43402C142.251 7.90929 142.699 8.48556 142.699 9.16282V17.0405H138.4V9.66186C138.4 9.32917 138.356 9.145 138.269 9.10935C138.203 9.06183 137.864 9.03806 137.252 9.03806H128.818C128.206 9.03806 127.856 9.06183 127.768 9.10935C127.702 9.145 127.67 9.32917 127.67 9.66186V17.0405H123.371Z" fill="black"/>
<path d="M150.683 17.0405C149.436 17.0405 148.364 16.8028 147.467 16.3276C146.592 15.8404 146.154 15.2582 146.154 14.5809V10.6956H161.183V9.66186C161.183 9.32917 161.14 9.145 161.052 9.10935C160.987 9.06183 160.647 9.03806 160.035 9.03806H146.154V6.70328H160.954C162.201 6.70328 163.262 6.94686 164.137 7.43402C165.034 7.90929 165.482 8.48556 165.482 9.16282V17.0405H150.683ZM151.601 14.7057H161.183V12.7987H150.453V14.0819C150.453 14.4146 150.486 14.6047 150.551 14.6522C150.639 14.6879 150.989 14.7057 151.601 14.7057Z" fill="black"/>
<defs>
<linearGradient id="paint0_linear_30_144" x1="193.95" y1="1.80202" x2="212.589" y2="48.9433" gradientUnits="userSpaceOnUse">
<stop stop-color="#F06F2B"/>
<stop offset="1" stop-color="#FFCF0A" stop-opacity="0.83"/>
</linearGradient>
<linearGradient id="paint1_linear_30_144" x1="193.95" y1="1" x2="212.593" y2="49.7497" gradientUnits="userSpaceOnUse">
<stop stop-color="#F06F2B"/>
<stop offset="1" stop-color="#FFCF0A" stop-opacity="0.83"/>
</linearGradient>
</defs>
</svg>
